<svg xmlns="http://www.w3.org/2000/svg" viewBox="0 0 389.51 283.12">
  <defs>
    <style>
      .a {
        fill: #3a3a3a;
      }

      .b {
        fill: #bb4748;
      }
    </style>
  </defs>
  <title>logo</title>
  <g>
    <g>
      <path class="a" d="M241.21,305.45c4.14-10.6,9.13-20.95,12.28-31.84,16.78-57.84,28.71-116.55,30-177,.12-5.9.82-11.79,1.17-17.68s4-8.17,9.29-8.2c8.62-.05,17.23.14,25.84.34,7.93.18,16.45,8.32,16.95,16.24,3.52,56.25,6.89,112.51,10.57,168.75.9,13.73,2.39,27.44,4.39,41.05,1.07,7.31,3.82,7.91,9,2.65a115.17,115.17,0,0,0,9.87-11.9c3-3.94,5.77-3.73,9.13-.43,9.47,9.32,9.55,9.43-.51,19.31a74.83,74.83,0,0,1-8.4,7.21c-26.28,19.09-47.47,12.26-64.16-13.39-13.27-20.4-16.51-44.52-19.94-68.22a8.22,8.22,0,0,0-2.08-4.94c-2.22,8.37-4.27,16.78-6.71,25.09-4.42,15.1-8.8,30.23-13.79,45.16-1.84,5.5-4.49,11.17-8.21,15.53-21.73,25.41-40.74,22-59.49-.12-6.3-7.42-10.13-17.46-13.3-26.9-9.48-28.23-12.94-57.71-13.54-87.25-.69-33.66.86-67.36,1.27-101.05.09-6.73,3.65-9.39,9.68-9.32,8.6.09,17.23.2,25.78,1,6.82.65,13.62,8.62,14.15,15.49,4.41,57.17,8.72,114.34,13.25,171.5.75,9.47,2.4,18.87,3.63,28.3Z" transform="translate(-5.24 -58.44)"/>
      <path class="a" d="M121.52,228.36c18.39,10,17.71,28.56,23.76,43.79,4.52,11.4,9.1,22.8,14.12,34,4.15,9.25,12.13,13.22,21.77,11.42,8.05-1.5,11.38,4.77,15.87,8.33,3.11,2.47.09,6.85-3.86,7.37-24.72,3.24-48.36,1.51-67.46-17.23-8.51-8.34-10.81-19.6-13.6-30.6q-5-19.62-10.36-39.13c-1.7-6.2-6.06-8.91-12.31-7.14-7,2-10.69-3.64-15.21-6.56-3.87-2.51-2.15-9.63,2.89-11.48,13.72-5.05,21-15.77,26.24-28.34,12-28.71,14.31-58.58,9.81-89.11-.58-4-2.46-7.78-4.54-14.11-3.9,5.58-7,9-8.94,13-11.18,23.33-15.78,48.6-20.76,73.69-3.21,16.16-5.72,32.47-8.23,48.75-.62,4.08-.17,8.35.05,12.51,1.33,25.31,2.66,50.62,4.19,75.92.31,5.18-1.65,8.2-6.71,8.63-13.24,1.15-26.28.2-36.75-9-2.92-2.57-4.37-7.64-5-11.81-3.1-19.43-6.39-38.87-8.33-58.44-4.58-46.28-8.28-92.65-12.68-139-.89-9.33,1.11-16.29,9.9-20.71,3.26-1.65,6.06-4.2,9.1-6.29C39.19,66.69,49,71.65,57.25,86.68c4.27,7.75,4.72,17.94,5.54,27.14.89,9.9.2,19.94.2,29.92l2,.16c3.85-11.74,7.12-23.71,11.71-35.15,4.37-10.9,9.06-22,15.62-31.61,4.6-6.75,12.07-12,19.19-16.43,6.85-4.26,13.81-2.07,20.44,2.93,12.3,9.27,18.95,21.65,22.44,36.21,7.16,29.8,7.47,59.55-1.62,89C147.77,205.11,139.91,219.78,121.52,228.36Z" transform="translate(-5.24 -58.44)"/>
    </g>
    <g>
      <path class="b" d="M249.21,312.45c4.14-10.6,9.13-20.95,12.28-31.84,16.78-57.84,28.71-116.55,30-177,.12-5.9.82-11.79,1.17-17.68s4-8.17,9.29-8.2c8.62-.05,17.23.14,25.84.34,7.93.18,16.45,8.32,16.95,16.24,3.52,56.25,6.89,112.51,10.57,168.75.9,13.73,2.39,27.44,4.39,41.05,1.07,7.31,3.82,7.91,9,2.65a115.17,115.17,0,0,0,9.87-11.9c3-3.94,5.77-3.73,9.13-.43,9.47,9.32,9.55,9.43-.51,19.31a74.83,74.83,0,0,1-8.4,7.21c-26.28,19.09-47.47,12.26-64.16-13.39-13.27-20.4-16.51-44.52-19.94-68.22a8.22,8.22,0,0,0-2.08-4.94c-2.22,8.37-4.27,16.78-6.71,25.09-4.42,15.1-8.8,30.23-13.79,45.16-1.84,5.5-4.49,11.17-8.21,15.53-21.73,25.41-40.74,22-59.49-.12-6.3-7.42-10.13-17.46-13.3-26.9-9.48-28.23-12.94-57.71-13.54-87.25-.69-33.66.86-67.36,1.27-101.05.09-6.73,3.65-9.39,9.68-9.32,8.6.09,17.23.2,25.78,1,6.82.65,13.62,8.62,14.15,15.49,4.41,57.17,8.72,114.34,13.25,171.5.75,9.47,2.4,18.87,3.63,28.3Z" transform="translate(-5.24 -58.44)"/>
      <path class="b" d="M129.52,235.36c18.39,10,17.71,28.56,23.76,43.79,4.52,11.4,9.1,22.8,14.12,34,4.15,9.25,12.13,13.22,21.77,11.42,8.05-1.5,11.38,4.77,15.87,8.33,3.11,2.47.09,6.85-3.86,7.37-24.72,3.24-48.36,1.51-67.46-17.23-8.51-8.34-10.81-19.6-13.6-30.6q-5-19.62-10.36-39.13c-1.7-6.2-6.06-8.91-12.31-7.14-7,2-10.69-3.64-15.21-6.56-3.87-2.51-2.15-9.63,2.89-11.48,13.72-5.05,21-15.77,26.24-28.34,12-28.71,14.31-58.58,9.81-89.11-.58-4-2.46-7.78-4.54-14.11-3.9,5.58-7,9-8.94,13-11.18,23.33-15.78,48.6-20.76,73.69-3.21,16.16-5.72,32.47-8.23,48.75-.62,4.08-.17,8.35.05,12.51,1.33,25.31,2.66,50.62,4.19,75.92.31,5.18-1.65,8.2-6.71,8.63-13.24,1.15-26.28.2-36.75-9-2.92-2.57-4.37-7.64-5-11.81-3.1-19.43-6.39-38.87-8.33-58.44-4.58-46.28-8.28-92.65-12.68-139-.89-9.33,1.11-16.29,9.9-20.71,3.26-1.65,6.06-4.2,9.1-6.29C47.19,73.69,57,78.65,65.25,93.68c4.27,7.75,4.72,17.94,5.54,27.14.89,9.9.2,19.94.2,29.92l2,.16c3.85-11.74,7.12-23.71,11.71-35.15,4.37-10.9,9.06-22,15.62-31.61,4.6-6.75,12.07-12,19.19-16.43,6.85-4.26,13.81-2.07,20.44,2.93,12.3,9.27,18.95,21.65,22.44,36.21,7.16,29.8,7.47,59.55-1.62,89C155.77,212.11,147.91,226.78,129.52,235.36Z" transform="translate(-5.24 -58.44)"/>
    </g>
  </g>
</svg>
